<svg xmlns="http://www.w3.org/2000/svg" version="1.1" style="display: block;" viewBox="0 0 1654 2048" width="730" height="904" preserveAspectRatio="none">
<path transform="translate(0,0)" fill="rgb(64,164,65)" d="M 1628.99 243.08 L 1630.51 243.514 C 1630.29 249.637 1624.98 268.238 1623.21 274.867 C 1618.73 291.47 1614.35 308.096 1610.05 324.745 C 1598.98 367.546 1589.86 408.039 1579.51 450.643 C 1566.64 437.961 1553.59 425.462 1540.36 413.148 C 1504.15 449.552 1464.53 495.502 1428.99 533.782 C 1392.9 572.239 1357.12 610.995 1321.68 650.047 C 1305.95 667.312 1289.11 685.115 1274.02 702.763 C 1272.25 717.17 1271.83 733.851 1270.35 748.765 C 1267.94 772.551 1264.45 796.216 1259.9 819.687 C 1235.41 952.028 1178.06 1085.6 1103.61 1197.4 C 1081.75 1230.24 1060.64 1257.97 1036.66 1288.99 C 1035.91 1298.16 1036.35 1312.53 1036.36 1322.13 L 1036.4 1380.72 L 1036.48 1564.67 L 810.43 1564.06 C 811.679 1534.01 810.542 1499.26 810.573 1468.83 C 854.36 1468.34 898.849 1468.72 942.69 1468.71 L 942.886 1245.36 C 948.112 1237.93 958.001 1227 964.065 1219.51 C 977.243 1203.26 989.947 1186.64 1002.16 1169.67 C 1077.63 1064.67 1137.3 947.358 1161.85 819.542 C 1154.37 827.26 1145.36 838.416 1137.97 846.711 L 1086.67 903.687 L 958.611 1045.61 C 926.605 1081.23 893.811 1118.5 861.029 1153.36 C 840.106 1131.41 815.829 1108.26 794.072 1086.86 L 696.49 990.705 L 690.055 984.192 C 631.533 1047.06 573.51 1110.39 515.993 1174.18 L 453.472 1242.03 C 442.607 1253.82 428.376 1268.39 418.76 1280.61 L 418.755 1468.53 L 558.393 1468.54 C 557.926 1500.58 558.227 1533.2 558.219 1565.28 C 483.096 1563.64 401.262 1565.04 325.658 1565.33 C 323.863 1480.1 326.793 1393.86 325.458 1308.52 C 325.116 1286.69 324.838 1262.69 325.84 1241.02 C 333.009 1231.7 350.817 1213.35 359.625 1203.66 L 429.268 1126.88 L 686.573 846.336 C 741.098 903.056 801.125 959.656 856.748 1016.23 C 894.893 975.948 933.098 932.907 970.393 891.697 L 1131.13 714.619 C 1245.79 589.284 1361.27 464.709 1477.57 340.901 C 1465.84 330.997 1453.71 319.238 1442.63 308.622 C 1449.21 305.912 1456.62 303.355 1463.36 300.982 C 1518.29 281.652 1573.45 260.476 1628.99 243.08 z"/>
<path transform="translate(0,0)" fill="rgb(64,164,65)" d="M 646.472 66.4598 C 778.532 61.9862 919.865 108.022 1024.9 187.956 C 993.541 205.809 961.018 225.527 929.92 242.654 C 910.718 230.573 896.585 220.858 875.98 210.655 C 760.039 152.163 625.339 143.171 502.652 185.733 C 340.797 240.796 208.234 376.62 165.419 543.017 C 138.769 646.588 135.725 773.833 170.682 875.8 C 195.547 847.842 222.159 819.852 247.557 792.192 L 441.242 582.948 L 576.786 437.194 C 605.09 406.761 634.276 374.722 663.261 345.085 L 826.472 502.936 C 865.216 460.939 905.533 419.581 944.477 377.69 C 965.12 355.486 987.064 334.048 1007.24 311.271 C 995.724 300.719 982.414 289.042 971.735 277.866 C 981.557 273.263 1008.28 265.093 1020.25 261.064 C 1069.12 246.212 1117.66 228.801 1167.47 213.812 C 1159.9 241.003 1151.53 267.987 1143.98 295.213 C 1132.69 335.531 1122.18 376.064 1112.46 416.791 L 1073.62 379.602 C 1048.23 405.324 1021.14 435.327 996.245 461.887 L 829.914 639.413 C 777.005 586.127 721.483 534.114 667.889 481.335 L 318.026 857.529 L 191.82 993.775 C 175.185 1011.81 157.459 1030.05 141.268 1048.26 C 82.634 949.462 53.9236 834.563 50.1731 720.16 C 44.5244 547.857 97.8442 382.229 217.524 255.909 C 329.151 137.558 483.807 69.2517 646.472 66.4598 z"/>
<path transform="translate(0,0)" fill="rgb(157,219,79)" d="M 1418.98 200.041 L 1420.17 200.83 C 1420.53 206.066 1369.08 391.564 1363.98 408.213 C 1352.18 396.365 1340.18 384.719 1327.98 373.279 C 1316.4 387.076 1298.56 405.195 1285.73 418.917 C 1257.3 449.468 1228.67 479.845 1199.87 510.046 L 1017.87 705.938 L 890.929 843.967 C 880.534 855.08 853.898 885.713 843.459 894.065 C 827.579 877.509 808.421 860.048 791.775 843.974 L 727.089 780.9 C 712.245 766.687 692.092 748.557 678.517 733.819 C 648.262 767.787 614.666 802.695 583.555 836.169 L 429.597 1002.95 L 312.397 1130.46 C 290.152 1154.62 265.756 1181.8 242.725 1204.9 C 237.002 1196.04 223.071 1179.61 216.204 1171.07 C 204.942 1157.28 193.858 1142.59 182.932 1128.47 C 204.238 1108.46 235.721 1072.72 256.252 1050.45 L 386.093 909.042 L 676.199 596.179 C 693.71 614.584 713.707 633.687 731.828 651.67 C 767.551 687.465 803.753 722.779 840.422 757.603 L 1097.97 479.215 C 1152.29 420.261 1207.04 361.705 1262.22 303.553 C 1249.33 291.885 1236.53 278.877 1223.1 267.951 C 1287.54 243.971 1353.92 222.44 1418.98 200.041 z"/>
<path transform="translate(0,0)" fill="rgb(64,164,65)" d="M 771.48 1617.51 L 911.303 1617.18 C 934.241 1617.13 957.763 1616.4 980.501 1617.96 C 1001.23 1619.39 1006.1 1637.5 1006.65 1654.69 C 1007.31 1675.04 1007.97 1707.5 980.115 1709.97 C 966.423 1711.18 950.276 1710.47 936.505 1710.47 L 852.166 1710.44 L 584.5 1710.88 L 449.998 1710.91 C 427.468 1710.93 404.42 1711.29 381.911 1710.79 C 376.505 1710.25 368.192 1709.58 363.856 1706.15 C 356.028 1699.95 351.049 1687.43 351.378 1677.53 C 351.919 1661.24 348.105 1639.55 360.286 1626.75 C 365.477 1621.3 371.612 1618.92 378.993 1618.43 C 394.106 1617.44 410.185 1617.87 425.366 1617.91 L 504.435 1617.85 L 771.48 1617.51 z"/>
<path transform="translate(0,0)" fill="rgb(64,164,65)" d="M 466.263 1755.35 C 492.842 1754.38 524.794 1755.15 551.702 1755.12 L 716.862 1754.98 L 832.485 1754.9 C 852.222 1754.87 886.118 1753.01 905.827 1757.56 C 913.223 1759.26 922.165 1776.13 922.126 1785.09 C 922.013 1811.44 928.132 1843.92 891.226 1846.53 C 864.369 1847.37 834.119 1846.83 807.044 1846.85 L 654.789 1846.94 L 532.355 1847.04 C 510.647 1847.07 488.723 1847.23 467.016 1846.95 C 461.406 1846.87 452.988 1846.39 448.487 1843.16 C 440.519 1837.37 434.69 1826.62 434.39 1816.67 C 433.544 1788.56 430.004 1759 466.263 1755.35 z"/>
<path transform="translate(0,0)" fill="rgb(64,164,65)" d="M 674.435 1887.5 L 841.085 1887.12 L 841.099 1887.92 C 841.439 1914.32 836.918 1938.05 817.6 1957.54 C 809.436 1965.89 799.208 1971.92 787.956 1975.03 C 771.277 1979.61 708.021 1978.05 687.413 1978.04 L 625.898 1978.2 C 611.355 1978.23 587.953 1979.23 574.608 1975.76 C 562.935 1972.68 552.279 1966.57 543.719 1958.06 C 523.868 1938.21 520.94 1914.19 520.769 1887.85 C 570.342 1886.57 624.443 1887.54 674.435 1887.5 z"/>
</svg>